# xmcd CD database file
# Copyright (C) 1996 Ti Kan
#
# Track frame offsets:
# 	183
# 	13233
# 	26110
# 	36245
# 	48743
# 	61060
# 	73053
# 	85250
# 	96525
# 	106708
# 	118673
# 	129840
# 	141600
# 	152168
# 	162973
# 	173208
#
# Disc length: 2570 seconds
#
# Revision: 1
# Processed by: cddbd v1.4b41PL1 Copyright (c) Steve Scherf et al.
# Submitted via: DiscPlay 3.4.1
#
DISCID=e30a0810
DTITLE=The Five Royales - The Roots Of Soul
DYEAR=1900
DGENRE=
TTITLE0=I'm Gonna Run It Down
TTITLE1=Devil With The Rest
TTITLE2=You Didn't Learn It At Home
TTITLE3=How I Wonder
TTITLE4=Mohawk Squaw
TTITLE5=When I Get Like This
TTITLE6=I Ain't Getting Caught
TTITLE7=Right Around The Corner
TTITLE8=I Could Love You If You Let Me
TTITLE9=Come On And Save Me
TTITLE10=Get Something Out Of It
TTITLE11=Think
TTITLE12=Tell The Truth
TTITLE13=Don't Let It Be In Vain
TTITLE14=The Slummer The Slum
TTITLE15=I'm With You
EXTD=
EXTT0=
EXTT1=
EXTT2=
EXTT3=
EXTT4=
EXTT5=
EXTT6=
EXTT7=
EXTT8=
EXTT9=
EXTT10=
EXTT11=
EXTT12=
EXTT13=
EXTT14=
EXTT15=
PLAYORDER=
